# xmcd
#
# Track frame offsets: 
#        150
#        17528
#        40075
#        62211
#        80557
#        102864
#        124155
#        145692
#        167185
#        185921
#
# Disc length: 2838 seconds
#
# Revision: 0
# Processed by: cddbd v1.5.2PL0 Copyright (c) Steve Scherf et al.
# Submitted via: ExactAudioCopy v0.95a5
#
DISCID=860b140a
DTITLE=未知艺术家 - 筝情流露
DYEAR=1900
DGENRE=
TTITLE0=甜密密
TTITLE1=南海姑娘
TTITLE2=想你想断肠
TTITLE3=奈何
TTITLE4=你怎么说
TTITLE5=千言万语
TTITLE6=情人的关怀
TTITLE7=忘记他
TTITLE8=我怎么离开你
TTITLE9=月亮代表我的心
EXTD=
EXTT0=
EXTT1=
EXTT2=
EXTT3=
EXTT4=
EXTT5=
EXTT6=
EXTT7=
EXTT8=
EXTT9=
PLAYORDER=
